<?xml version="1.0" encoding="utf-8"?>
<svg width="665pt" height="752pt" viewBox="0 0 665 752" version="1.1" xmlns="http://www.w3.org/2000/svg">
    <g id="#c00000ff">
        <path fill="#c00000" opacity="1.00"
              d=" M 29.37 20.42 C 37.65 6.59 55.48 -0.47 70.98 4.06 C 84.17 7.48 94.94 18.74 97.65 32.12 C 100.72 45.78 95.17 60.89 83.97 69.29 C 91.17 85.27 99.61 100.72 107.04 116.61 C 121.32 111.46 137.34 111.10 151.66 116.33 C 157.08 101.51 162.75 86.78 168.26 71.98 C 159.34 66.22 152.82 56.71 151.31 46.15 C 149.57 35.46 152.81 24.09 159.98 15.98 C 170.77 3.10 190.70 -0.59 205.38 7.60 C 216.23 13.30 223.88 24.73 224.81 36.98 C 225.94 48.16 221.59 59.73 213.37 67.39 C 203.37 77.16 187.61 80.21 174.63 75.09 C 168.96 89.69 163.58 104.41 158.04 119.06 C 174.19 127.20 186.67 142.36 191.09 159.94 C 196.52 180.44 190.86 203.57 176.16 218.94 C 191.29 235.52 206.34 252.18 221.42 268.81 L 222.04 268.88 C 238.13 255.65 258.08 247.04 278.88 245.22 C 307.97 242.30 338.25 252.34 359.42 272.58 C 360.19 273.25 361.40 274.81 362.39 273.46 C 386.27 252.61 410.08 231.67 434.01 210.88 C 424.93 197.19 421.28 179.99 424.40 163.83 C 427.28 147.86 436.66 133.17 449.93 123.83 C 462.59 114.72 478.71 110.74 494.17 112.60 C 513.42 114.80 530.99 126.56 540.98 143.07 C 555.99 134.65 570.85 125.97 585.86 117.56 C 582.25 110.68 580.19 102.79 581.17 95.01 C 582.16 84.53 587.89 74.54 596.54 68.51 C 603.81 63.27 613.06 60.87 621.97 61.84 C 632.55 62.88 642.55 68.76 648.56 77.55 C 655.31 87.10 657.08 99.91 653.18 110.94 C 649.66 121.35 641.28 129.98 630.94 133.71 C 616.83 139.07 599.73 134.76 590.01 123.15 C 574.60 131.66 559.42 140.59 544.08 149.23 C 550.38 163.13 551.50 179.32 547.04 193.93 C 562.04 198.60 577.01 203.40 592.06 207.94 C 598.18 196.79 610.19 189.14 622.94 188.66 C 637.06 187.80 651.05 195.98 657.53 208.49 C 662.52 217.87 663.22 229.44 659.30 239.33 C 655.02 250.60 644.92 259.46 633.14 262.08 C 625.08 264.08 616.51 262.96 608.94 259.72 C 606.43 264.40 603.94 269.09 601.72 273.90 C 599.37 273.72 597.51 271.99 595.38 271.18 C 597.52 265.98 600.48 261.15 602.88 256.06 C 592.87 248.80 586.89 236.39 587.58 224.03 C 587.65 220.69 588.73 217.49 589.00 214.18 C 574.17 209.76 559.49 204.89 544.68 200.45 C 538.41 214.87 526.75 226.94 512.31 233.28 C 499.54 239.07 484.78 240.34 471.19 236.92 C 458.42 233.76 446.70 226.45 438.27 216.35 C 414.26 237.37 390.26 258.39 366.21 279.37 C 383.30 298.20 392.96 323.53 392.87 348.95 C 393.08 376.90 381.25 404.51 361.21 423.94 C 382.52 445.92 403.82 467.92 425.22 489.82 C 442.56 477.02 466.71 474.14 486.49 482.76 C 488.50 479.43 490.12 475.89 491.92 472.45 C 493.91 473.46 495.90 474.49 497.95 475.40 C 496.81 479.07 494.52 482.25 493.00 485.77 C 506.28 493.36 516.83 505.70 521.82 520.20 C 526.96 534.56 526.51 550.78 520.79 564.90 C 514.35 581.17 500.77 594.38 484.39 600.49 C 471.22 605.53 456.33 605.82 442.93 601.49 C 429.41 597.26 417.52 588.20 409.68 576.42 C 400.58 563.00 397.03 545.98 399.97 530.03 C 402.30 516.29 409.52 503.54 419.77 494.13 C 398.53 472.29 377.37 450.35 356.04 428.59 C 337.03 444.84 312.01 453.79 287.00 453.25 C 280.06 453.27 273.22 452.05 266.38 451.05 C 262.56 471.78 258.58 492.48 254.73 513.21 C 270.39 516.61 284.68 526.07 293.65 539.38 C 299.19 547.39 302.79 556.72 304.16 566.37 C 307.45 566.30 310.61 565.13 313.90 565.00 C 314.34 567.19 314.77 569.40 314.95 571.64 C 311.55 572.35 308.11 572.92 304.74 573.74 C 305.19 591.07 298.19 608.56 285.58 620.52 C 273.70 632.38 256.79 638.95 240.03 638.48 C 231.06 638.44 222.31 635.96 214.13 632.44 C 206.66 648.01 198.43 663.26 191.26 678.94 C 199.94 683.09 206.70 690.97 209.76 700.07 C 213.37 710.10 212.13 721.66 206.83 730.86 C 201.24 740.54 191.14 747.45 180.06 749.01 C 164.03 751.68 147.12 742.20 140.75 727.31 C 136.33 717.50 136.48 705.78 141.18 696.11 C 147.03 683.68 160.24 674.90 174.07 675.07 C 177.68 674.70 181.26 675.81 184.75 676.02 C 192.57 660.38 200.44 644.74 208.15 629.05 C 195.31 620.98 185.45 608.25 181.06 593.73 C 165.89 597.72 150.87 602.55 135.77 606.90 C 136.53 617.10 133.25 627.69 126.19 635.20 C 119.82 642.35 110.57 646.84 101.01 647.36 C 90.76 648.05 80.30 644.23 72.96 637.04 C 65.68 630.09 61.43 620.07 61.59 610.00 C 61.57 599.51 66.31 589.12 74.25 582.26 C 81.50 575.81 91.35 572.48 101.03 573.14 C 116.35 573.81 130.38 585.16 134.38 599.93 C 149.40 596.04 164.15 591.09 179.12 587.02 C 178.42 579.69 177.72 572.20 179.17 564.89 C 181.78 547.98 191.78 532.47 205.91 522.88 C 218.07 514.45 233.25 510.63 247.96 512.16 C 251.79 491.33 255.85 470.54 259.63 449.71 L 259.52 448.97 C 221.37 438.39 191.07 403.75 186.00 364.44 C 184.40 363.85 182.70 364.40 181.08 364.52 C 163.50 366.81 145.90 368.92 128.31 371.18 C 127.96 387.80 120.66 404.13 108.53 415.50 C 97.43 426.09 82.34 432.39 67.00 432.73 C 51.30 433.31 35.50 427.63 23.69 417.27 C 11.16 406.47 3.20 390.56 2.08 374.05 C 0.96 359.25 5.27 344.08 14.10 332.13 C 23.72 318.81 38.76 309.52 55.01 306.99 C 63.32 305.59 71.86 306.08 80.07 307.86 C 80.68 305.77 81.32 303.70 81.89 301.60 C 84.29 301.42 86.52 302.77 88.78 303.42 C 88.00 305.59 87.31 307.80 86.71 310.03 C 109.51 317.87 126.23 340.02 128.17 363.98 C 147.09 361.98 165.94 359.24 184.84 357.07 C 183.51 335.21 188.53 312.89 200.19 294.25 C 204.71 286.75 210.44 280.08 216.61 273.89 C 201.61 257.24 186.42 240.78 171.53 224.04 C 169.99 224.60 168.82 225.78 167.52 226.73 C 151.09 239.19 128.42 242.51 109.01 235.67 C 108.22 238.43 107.34 241.18 106.64 243.97 C 104.29 243.65 102.06 242.82 99.85 242.01 C 100.74 238.98 101.70 235.97 102.52 232.93 C 88.21 226.14 76.72 213.67 71.00 198.91 C 64.55 182.65 65.36 163.74 73.06 148.05 C 78.91 135.78 89.04 125.99 100.80 119.38 C 93.04 104.06 85.52 88.62 77.90 73.23 C 71.04 76.34 63.32 77.91 55.82 76.65 C 43.59 75.08 32.53 66.81 27.37 55.65 C 22.03 44.58 22.82 30.82 29.37 20.42 M 53.44 10.62 C 46.39 12.50 39.93 16.88 35.90 23.01 C 28.98 32.94 29.06 47.10 36.05 56.98 C 44.19 69.31 61.83 73.82 74.89 66.87 C 88.84 60.29 95.56 42.15 89.16 28.09 C 83.72 14.46 67.53 6.68 53.44 10.62 M 182.47 10.66 C 168.95 12.85 158.16 25.33 157.80 39.00 C 157.09 50.74 164.02 62.46 174.61 67.54 C 185.94 73.30 200.77 70.79 209.50 61.54 C 218.12 52.91 220.53 38.90 215.43 27.86 C 210.01 15.49 195.74 7.94 182.47 10.66 M 609.44 69.65 C 599.06 72.64 590.62 81.58 588.47 92.19 C 586.46 100.76 588.54 110.14 593.85 117.13 C 602.49 129.21 620.53 132.85 633.22 125.17 C 645.29 118.51 651.33 103.07 647.13 89.96 C 642.86 74.37 624.83 64.63 609.44 69.65 M 480.21 119.32 C 462.54 121.10 446.17 131.97 437.49 147.43 C 429.05 162.04 427.83 180.47 433.96 196.15 C 439.31 209.88 450.22 221.33 463.74 227.22 C 474.75 232.15 487.36 233.22 499.12 230.59 C 513.86 227.36 526.97 217.72 534.76 204.83 C 542.03 193.05 544.55 178.53 541.98 164.95 C 539.49 151.28 531.65 138.68 520.53 130.36 C 509.19 121.64 494.40 117.66 480.21 119.32 M 119.27 120.45 C 102.57 123.56 87.59 134.71 79.90 149.88 C 72.41 164.08 71.55 181.55 77.46 196.46 C 82.41 209.35 92.37 220.19 104.73 226.33 C 116.73 232.39 130.95 233.84 143.96 230.49 C 158.31 226.88 170.96 217.23 178.43 204.48 C 185.83 192.00 188.13 176.59 184.62 162.50 C 180.87 146.45 169.57 132.38 154.73 125.22 C 143.86 119.77 131.19 118.21 119.27 120.45 M 616.42 196.58 C 606.33 199.34 598.00 207.74 595.39 217.87 C 592.12 229.20 596.32 242.12 605.50 249.48 C 612.48 255.22 622.09 257.51 630.91 255.62 C 640.09 253.80 648.22 247.37 652.10 238.86 C 656.36 230.16 655.93 219.42 651.19 211.00 C 644.76 198.90 629.52 192.63 616.42 196.58 M 282.74 251.87 C 275.53 252.25 268.38 253.58 261.45 255.57 C 230.53 264.41 205.04 289.73 195.83 320.52 C 189.10 342.63 190.47 367.14 199.84 388.28 C 206.53 403.74 217.54 417.16 230.97 427.26 C 247.83 439.86 268.93 446.67 289.98 446.32 C 310.37 446.17 330.65 439.31 346.92 427.02 C 360.84 416.41 372.16 402.25 378.72 385.96 C 387.23 365.22 388.27 341.49 381.59 320.08 C 376.74 304.21 367.65 289.69 355.54 278.35 C 339.42 262.75 317.59 253.20 295.20 251.90 C 291.26 250.65 286.68 250.70 282.74 251.87 M 56.53 313.74 C 39.12 316.28 23.34 327.63 15.27 343.25 C 7.68 357.55 6.75 375.18 12.77 390.20 C 17.74 403.05 27.69 413.82 39.99 419.96 C 54.72 427.37 72.78 427.83 87.84 421.10 C 100.03 415.77 110.12 405.88 115.90 393.91 C 121.76 381.75 123.02 367.45 119.41 354.44 C 115.58 340.06 105.62 327.51 92.67 320.24 C 81.80 314.06 68.86 311.90 56.53 313.74 M 451.51 485.68 C 434.02 488.84 418.54 500.99 411.10 517.10 C 403.84 532.45 403.96 551.13 411.64 566.31 C 416.92 577.07 425.72 586.06 436.42 591.49 C 451.05 599.08 469.09 599.82 484.23 593.24 C 497.35 587.67 508.22 576.97 513.89 563.87 C 518.73 552.65 519.97 539.84 517.05 527.95 C 513.37 512.16 502.47 498.21 488.01 490.88 C 476.89 485.11 463.79 483.23 451.51 485.68 M 236.79 518.88 C 220.43 520.07 204.94 529.05 195.50 542.43 C 188.81 551.86 185.01 563.41 185.17 574.99 C 184.82 590.87 191.97 606.61 203.74 617.20 C 215.21 627.66 231.20 633.01 246.66 631.48 C 260.10 630.33 273.02 624.07 282.27 614.28 C 292.37 603.90 298.08 589.46 297.94 574.99 C 298.07 559.34 291.12 543.85 279.52 533.39 C 270.44 524.96 258.43 519.77 246.08 518.88 C 243.22 517.63 239.65 517.65 236.79 518.88 M 90.63 580.91 C 83.85 582.74 77.88 587.11 73.80 592.80 C 68.15 600.84 66.74 611.69 70.26 620.88 C 73.48 629.64 80.95 636.76 89.94 639.35 C 101.22 642.94 114.38 639.00 121.90 629.88 C 127.87 622.90 130.35 613.07 128.43 604.09 C 126.73 595.25 120.74 587.37 112.75 583.26 C 106.01 579.71 97.96 578.88 90.63 580.91 M 167.48 682.61 C 154.59 685.58 144.61 697.74 144.36 710.99 C 143.60 723.84 152.10 736.50 164.24 740.73 C 174.97 744.82 187.91 742.05 195.97 733.85 C 204.73 725.51 207.44 711.64 202.76 700.54 C 197.46 686.97 181.58 678.85 167.48 682.61 Z"/>
        <path fill="#c00000" opacity="1.00"
              d=" M 92.15 268.53 C 93.53 261.84 95.94 255.35 97.88 248.80 C 100.12 249.33 102.34 249.96 104.50 250.77 C 102.40 257.30 100.78 263.99 98.40 270.42 C 96.33 269.74 94.25 269.11 92.15 268.53 Z"/>
        <path fill="#c00000" opacity="1.00"
              d=" M 89.77 275.25 C 92.09 275.29 94.23 276.37 96.44 276.97 C 94.75 283.61 92.73 290.20 90.55 296.70 C 88.39 296.02 86.22 295.39 84.06 294.73 C 85.82 288.20 88.04 281.79 89.77 275.25 Z"/>
        <path fill="#c00000" opacity="1.00"
              d=" M 592.11 277.16 C 594.09 278.16 596.06 279.20 598.07 280.18 C 595.59 286.53 591.88 292.36 589.01 298.56 C 586.94 297.73 584.99 296.63 582.99 295.67 C 585.41 289.25 589.11 283.34 592.11 277.16 Z"/>
        <path fill="#c00000" opacity="1.00"
              d=" M 570.21 319.88 C 573.47 313.83 576.17 307.43 579.86 301.65 C 581.80 302.75 583.79 303.75 585.80 304.75 C 582.73 310.81 579.51 316.80 576.58 322.93 C 574.32 322.21 572.32 320.92 570.21 319.88 Z"/>
        <path fill="#c00000" opacity="1.00"
              d=" M 228.82 313.98 C 231.02 309.34 236.25 307.21 241.07 306.62 C 250.30 305.56 259.56 307.57 268.38 310.18 C 268.90 310.35 269.93 310.69 270.45 310.86 C 277.10 312.99 283.54 315.70 289.85 318.68 C 290.51 319.01 291.83 319.67 292.49 320.01 C 299.65 323.57 306.54 327.67 313.21 332.09 C 313.82 332.48 315.05 333.26 315.66 333.66 C 321.23 337.82 326.83 341.97 331.88 346.77 C 332.46 347.31 333.03 347.85 333.61 348.40 C 339.87 354.56 345.89 361.28 349.50 369.38 C 351.35 373.62 352.44 378.74 350.24 383.06 C 348.20 387.35 343.43 389.40 338.99 390.12 C 329.95 391.46 320.87 389.48 312.17 387.15 C 311.70 386.98 310.77 386.66 310.30 386.50 C 303.32 384.40 296.60 381.56 290.00 378.52 C 289.37 378.20 288.11 377.57 287.48 377.25 C 280.29 373.72 273.38 369.65 266.68 365.26 C 265.79 364.67 264.91 364.07 264.04 363.48 C 258.31 359.38 252.69 355.12 247.53 350.32 C 247.13 349.95 246.35 349.23 245.96 348.86 C 239.98 343.13 234.41 336.79 230.57 329.41 C 228.25 324.73 226.49 319.00 228.82 313.98 M 232.17 312.93 C 229.06 316.44 229.73 321.64 231.39 325.67 C 234.83 334.07 241.08 340.90 247.46 347.20 C 247.89 347.58 248.75 348.33 249.19 348.71 C 253.70 353.02 258.69 356.81 263.73 360.50 C 264.55 361.09 265.43 361.61 266.36 362.05 L 266.38 362.41 C 273.67 367.13 281.11 371.68 288.95 375.44 L 289.27 375.41 C 290.09 376.53 291.60 376.67 292.77 377.28 C 298.61 379.98 304.60 382.34 310.72 384.32 C 311.52 384.55 312.33 384.79 313.14 385.04 C 320.86 387.14 328.88 388.85 336.92 388.12 C 341.23 387.66 346.17 386.20 348.28 382.05 C 350.20 377.82 348.76 373.03 346.89 369.07 C 343.26 361.73 337.71 355.56 331.92 349.87 C 331.34 349.32 330.76 348.79 330.19 348.25 C 325.69 344.25 321.11 340.31 316.08 336.99 C 315.48 336.62 314.26 335.90 313.65 335.54 L 313.64 335.23 C 306.14 329.88 298.09 325.31 289.84 321.21 C 289.17 320.89 287.84 320.26 287.17 319.94 C 281.56 317.29 275.79 315.02 269.94 312.99 C 269.12 312.77 268.31 312.55 267.50 312.33 C 259.91 310.01 252.01 308.29 244.04 308.62 C 239.82 308.86 235.20 309.74 232.17 312.93 Z"/>
        <path fill="#c00000" opacity="1.00"
              d=" M 567.07 326.01 C 569.07 327.01 571.07 328.04 573.08 329.04 C 570.46 335.37 566.88 341.28 563.91 347.45 C 561.87 346.32 559.53 345.63 557.79 344.04 C 560.94 338.06 563.94 332.00 567.07 326.01 Z"/>
        <path fill="#c00000" opacity="1.00"
              d=" M 545.23 368.76 C 548.27 362.58 551.33 356.39 554.71 350.40 C 556.72 351.49 558.76 352.53 560.77 353.66 C 557.52 359.69 554.60 365.89 551.30 371.89 C 549.29 370.80 547.27 369.75 545.23 368.76 Z"/>
        <path fill="#c00000" opacity="1.00"
              d=" M 542.05 374.86 C 544.11 375.86 546.15 376.92 548.19 377.99 C 545.18 384.14 541.94 390.17 538.87 396.29 C 536.79 395.23 534.66 394.27 532.69 393.01 C 535.82 386.96 538.86 380.88 542.05 374.86 Z"/>
        <path fill="#c00000" opacity="1.00"
              d=" M 520.18 417.30 C 523.49 411.35 526.16 405.02 529.73 399.24 C 531.64 400.49 533.94 401.13 535.69 402.64 C 532.43 408.60 529.45 414.70 526.32 420.72 C 524.30 419.52 522.02 418.76 520.18 417.30 Z"/>
        <path fill="#c00000" opacity="1.00"
              d=" M 507.60 441.95 C 510.73 435.85 513.76 429.70 517.04 423.68 C 519.07 424.76 521.28 425.54 523.11 426.97 C 520.01 433.00 516.91 439.02 513.84 445.07 C 511.74 444.06 509.68 442.99 507.60 441.95 Z"/>
        <path fill="#c00000" opacity="1.00"
              d=" M 504.39 448.05 C 506.42 448.99 508.38 450.07 510.42 451.02 C 507.97 457.37 504.25 463.34 501.26 469.53 C 499.23 468.46 497.19 467.42 495.13 466.44 C 498.02 460.22 501.44 454.25 504.39 448.05 Z"/>
        <path fill="#c00000" opacity="1.00"
              d=" M 374.48 553.04 C 381.15 551.94 387.77 550.57 394.40 549.25 C 395.01 551.52 395.53 553.83 395.70 556.20 C 388.98 557.36 382.32 558.96 375.57 559.88 C 375.19 557.60 374.66 555.34 374.48 553.04 Z"/>
        <path fill="#c00000" opacity="1.00"
              d=" M 347.38 558.59 C 353.93 556.70 360.79 555.99 367.44 554.41 C 368.15 556.67 368.60 559.02 368.76 561.40 C 362.07 562.48 355.47 564.08 348.77 565.08 C 348.33 562.91 347.90 560.73 347.38 558.59 Z"/>
        <path fill="#c00000" opacity="1.00"
              d=" M 320.60 563.51 C 327.20 562.06 333.90 561.09 340.48 559.54 C 341.43 561.76 341.55 564.20 341.92 566.57 C 335.21 567.69 328.55 569.09 321.88 570.36 C 321.42 568.08 320.97 565.79 320.60 563.51 Z"/>
    </g>
    <g id="#901717b9">
        <path fill="#901717" opacity="0.73"
              d=" M 282.74 251.87 C 286.68 250.70 291.26 250.65 295.20 251.90 C 291.04 251.93 286.89 251.92 282.74 251.87 Z"/>
    </g>
    <g id="#000000ff">
        <path fill="#000000" opacity="1.00"
              d=" M 276.44 289.41 C 279.51 284.75 283.98 279.91 289.98 279.82 C 295.22 279.81 299.40 283.60 302.34 287.57 C 307.07 294.22 309.77 302.06 311.88 309.87 C 311.32 310.04 310.19 310.39 309.62 310.56 C 307.16 302.57 304.70 294.28 299.32 287.70 C 296.98 284.94 293.85 282.21 290.02 282.31 C 285.63 282.29 282.28 285.66 279.79 288.90 C 275.06 295.40 272.51 303.17 270.45 310.86 C 269.93 310.69 268.90 310.35 268.38 310.18 C 269.67 302.87 272.61 295.78 276.44 289.41 Z"/>
        <path fill="#000000" opacity="1.00"
              d=" M 267.50 312.33 C 268.31 312.55 269.12 312.77 269.94 312.99 C 268.42 319.21 267.54 325.56 266.82 331.92 C 266.23 332.30 265.05 333.07 264.46 333.46 C 264.52 326.32 266.16 319.31 267.50 312.33 Z"/>
        <path fill="#000000" opacity="1.00"
              d=" M 310.08 312.91 C 310.86 312.65 311.65 312.40 312.44 312.15 C 314.01 319.23 315.44 326.40 315.66 333.66 C 315.05 333.26 313.82 332.48 313.21 332.09 C 312.58 325.63 311.60 319.21 310.08 312.91 Z"/>
        <path fill="#000000" opacity="1.00"
              d=" M 286.21 339.24 C 293.08 336.13 301.51 342.60 300.27 350.04 C 299.69 357.58 289.92 361.88 283.98 357.15 C 277.39 352.94 278.83 341.75 286.21 339.24 Z"/>
        <path fill="#000000" opacity="1.00"
              d=" M 312.58 365.44 C 313.76 364.63 314.94 363.81 316.12 362.99 C 315.61 370.39 314.58 377.76 313.14 385.04 C 312.33 384.79 311.52 384.55 310.72 384.32 C 312.03 378.15 312.89 371.90 313.46 365.63 L 312.58 365.44 Z"/>
        <path fill="#000000" opacity="1.00"
              d=" M 264.04 363.48 C 264.91 364.07 265.79 364.67 266.68 365.26 C 267.00 371.80 268.11 378.27 269.38 384.68 C 268.79 384.87 267.61 385.25 267.02 385.44 C 265.55 378.20 264.41 370.87 264.04 363.48 Z"/>
        <path fill="#000000" opacity="1.00"
              d=" M 267.55 387.77 C 268.13 387.58 269.29 387.21 269.88 387.02 C 272.22 395.63 274.72 404.52 280.23 411.73 C 282.61 414.79 285.89 417.72 289.99 417.78 C 294.30 417.69 297.79 414.53 300.21 411.23 C 305.49 403.92 308.12 395.13 310.30 386.50 C 310.77 386.66 311.70 386.98 312.17 387.15 L 312.67 387.66 C 309.60 398.14 306.54 409.59 298.05 417.09 C 293.61 421.20 286.31 421.12 281.91 417.01 C 273.56 409.52 270.37 398.23 267.55 387.77 Z"/>
    </g>
    <g id="#0166afe9">
        <path fill="#0166af" opacity="0.91"
              d=" M 311.88 309.87 C 321.60 307.15 332.13 304.69 342.09 307.59 C 348.06 309.12 352.14 315.41 350.82 321.50 C 348.67 332.26 340.97 340.71 333.61 348.40 C 333.03 347.85 332.46 347.31 331.88 346.77 C 338.93 339.36 346.57 331.28 348.49 320.86 C 349.55 315.98 346.19 311.12 341.49 309.86 C 331.90 307.10 321.80 309.58 312.44 312.15 C 311.65 312.40 310.86 312.65 310.08 312.91 C 304.06 314.88 298.19 317.27 292.49 320.01 C 291.83 319.67 290.51 319.01 289.85 318.68 C 296.21 315.45 302.86 312.81 309.62 310.56 C 310.19 310.39 311.32 310.04 311.88 309.87 Z"/>
    </g>
    <g id="#0165ade7">
        <path fill="#0165ad" opacity="0.91"
              d=" M 287.17 319.94 C 287.84 320.26 289.17 320.89 289.84 321.21 C 281.76 325.40 273.77 329.84 266.38 335.19 C 265.77 335.60 264.57 336.41 263.97 336.82 C 258.77 340.43 253.99 344.60 249.19 348.71 C 248.75 348.33 247.89 347.58 247.46 347.20 C 252.78 342.21 258.58 337.76 264.46 333.46 C 265.05 333.07 266.23 332.30 266.82 331.92 C 273.36 327.53 280.15 323.51 287.17 319.94 Z"/>
    </g>
    <g id="#020101f8">
        <path fill="#020101" opacity="0.97"
              d=" M 263.97 336.82 C 264.57 336.41 265.77 335.60 266.38 335.19 C 266.09 344.14 265.68 353.10 266.36 362.05 C 265.43 361.61 264.55 361.09 263.73 360.50 C 263.35 352.61 263.32 344.70 263.97 336.82 Z"/>
    </g>
    <g id="#172d52ff">
        <path fill="#172d52" opacity="1.00"
              d=" M 286.38 336.52 C 293.02 334.41 300.74 338.65 302.34 345.46 C 304.78 353.20 298.11 361.96 289.99 361.57 C 282.83 361.86 276.68 355.02 277.27 347.97 C 277.54 342.75 281.36 337.96 286.38 336.52 M 286.21 339.24 C 278.83 341.75 277.39 352.94 283.98 357.15 C 289.92 361.88 299.69 357.58 300.27 350.04 C 301.51 342.60 293.08 336.13 286.21 339.24 Z"/>
    </g>
    <g id="#020102f8">
        <path fill="#020102" opacity="0.97"
              d=" M 313.65 335.54 C 314.26 335.90 315.48 336.62 316.08 336.99 C 316.70 344.61 316.76 352.30 316.26 359.93 C 315.66 360.35 314.46 361.19 313.86 361.61 C 314.15 352.92 314.10 344.23 313.65 335.54 Z"/>
    </g>
    <g id="#0364abe6">
        <path fill="#0364ab" opacity="0.90"
              d=" M 330.19 348.25 C 330.76 348.79 331.34 349.32 331.92 349.87 C 327.10 354.75 321.64 358.94 316.12 362.99 C 314.94 363.81 313.76 364.63 312.58 365.44 C 306.24 369.80 299.60 373.72 292.77 377.28 C 291.60 376.67 290.09 376.53 289.27 375.41 C 289.86 375.34 291.04 375.22 291.63 375.15 C 299.37 371.22 306.82 366.68 313.86 361.61 C 314.46 361.19 315.66 360.35 316.26 359.93 C 321.12 356.32 325.90 352.55 330.19 348.25 Z"/>
    </g>
    <g id="#0167b0ea">
        <path fill="#0167b0" opacity="0.92"
              d=" M 237.71 357.61 C 240.35 354.61 242.89 351.39 245.96 348.86 C 246.35 349.23 247.13 349.95 247.53 350.32 C 240.45 357.72 232.87 365.63 230.38 375.88 C 228.85 380.96 231.97 386.57 237.09 387.94 C 246.96 390.84 257.42 388.22 267.02 385.44 C 267.61 385.25 268.79 384.87 269.38 384.68 C 275.57 382.63 281.62 380.14 287.48 377.25 C 288.11 377.57 289.37 378.20 290.00 378.52 C 283.60 382.02 276.77 384.67 269.88 387.02 C 269.29 387.21 268.13 387.58 267.55 387.77 C 257.89 390.57 247.52 392.95 237.53 390.55 C 232.20 389.33 227.53 384.64 227.77 378.93 C 227.92 370.78 232.89 363.78 237.71 357.61 Z"/>
    </g>
    <g id="#8e1616b5">
        <path fill="#8e1616" opacity="0.71"
              d=" M 236.79 518.88 C 239.65 517.65 243.22 517.63 246.08 518.88 C 242.98 518.92 239.89 518.91 236.79 518.88 Z"/>
    </g>
</svg>