<?xml version="1.0" encoding="utf-8"?>
<svg width="1201pt" height="188pt" viewBox="0 0 1201 188" version="1.1" xmlns="http://www.w3.org/2000/svg">
    <g id="#333333ff">
        <path fill="#333333" opacity="1.00"
              d=" M 624.62 161.00 C 627.07 161.00 629.53 161.00 632.00 161.00 C 632.00 161.87 632.00 163.62 632.00 164.50 C 629.54 164.50 627.08 164.50 624.63 164.50 C 624.63 163.63 624.62 161.87 624.62 161.00 Z"/>
        <path fill="#333333" opacity="1.00"
              d=" M 1141.99 161.00 C 1144.44 160.99 1146.90 161.00 1149.38 161.01 C 1149.38 161.88 1149.38 163.62 1149.37 164.49 C 1146.91 164.50 1144.45 164.51 1142.01 164.51 C 1141.99 163.34 1141.98 162.17 1141.99 161.00 Z"/>
        <path fill="#333333" opacity="1.00"
              d=" M 50.39 163.49 C 52.68 163.49 54.97 163.50 57.26 163.51 C 57.25 164.32 57.25 165.93 57.25 166.74 C 54.94 166.74 52.64 166.74 50.34 166.75 C 50.36 165.66 50.38 164.58 50.39 163.49 Z"/>
        <path fill="#333333" opacity="1.00"
              d=" M 339.00 163.50 C 341.29 163.50 343.59 163.50 345.89 163.51 C 345.88 164.31 345.86 165.93 345.85 166.73 C 343.57 166.74 341.28 166.74 339.00 166.75 C 339.00 165.94 339.00 164.31 339.00 163.50 Z"/>
        <path fill="#333333" opacity="1.00"
              d=" M 575.63 164.50 C 578.08 164.50 580.54 164.50 583.00 164.50 C 583.00 165.37 583.00 167.12 583.00 168.00 C 580.53 167.99 578.07 167.99 575.62 167.99 C 575.62 167.12 575.63 165.37 575.63 164.50 Z"/>
        <path fill="#333333" opacity="1.00"
              d=" M 1093.00 164.50 C 1095.44 164.50 1097.90 164.50 1100.37 164.50 C 1100.37 165.37 1100.38 167.12 1100.38 167.99 C 1097.91 167.99 1095.45 167.99 1093.00 168.00 C 1093.00 167.12 1093.00 165.37 1093.00 164.50 Z"/>
        <path fill="#333333" opacity="1.00"
              d=" M 818.00 166.24 C 820.47 166.25 822.94 166.26 825.42 166.27 C 825.40 167.17 825.36 168.97 825.34 169.87 C 822.88 169.87 820.44 169.87 818.00 169.87 C 817.99 168.66 817.99 167.45 818.00 166.24 Z"/>
        <path fill="#333333" opacity="1.00"
              d=" M 939.67 166.25 C 942.06 166.25 944.47 166.25 946.89 166.24 C 946.86 167.40 946.85 168.57 946.85 169.74 C 944.41 169.74 941.99 169.74 939.57 169.74 C 939.59 168.87 939.64 167.13 939.67 166.25 Z"/>
        <path fill="#333333" opacity="1.00"
              d=" M 75.26 166.75 C 77.50 166.75 79.75 166.74 82.00 166.74 C 82.00 167.56 82.00 169.19 82.00 170.00 C 79.74 169.99 77.49 169.99 75.23 169.98 C 75.24 169.18 75.25 167.56 75.26 166.75 Z"/>
        <path fill="#333333" opacity="1.00"
              d=" M 363.75 166.75 C 366.04 166.74 368.32 166.74 370.61 166.73 C 370.62 167.81 370.63 168.90 370.64 169.98 C 368.34 169.99 366.04 169.99 363.74 170.00 C 363.74 169.19 363.75 167.56 363.75 166.75 Z"/>
        <path fill="#333333" opacity="1.00"
              d=" M 499.75 169.75 C 502.21 169.75 504.67 169.74 507.14 169.74 C 507.13 170.62 507.11 172.37 507.10 173.25 C 504.65 173.25 502.20 173.25 499.75 173.25 C 499.75 172.37 499.75 170.62 499.75 169.75 Z"/>
        <path fill="#333333" opacity="1.00"
              d=" M 966.15 169.76 C 968.59 169.75 971.04 169.74 973.50 169.74 C 973.50 170.62 973.49 172.37 973.49 173.24 C 971.02 173.25 968.56 173.26 966.11 173.27 C 966.12 172.39 966.14 170.64 966.15 169.76 Z"/>
        <path fill="#333333" opacity="1.00"
              d=" M 587.50 171.50 C 589.90 171.50 592.31 171.49 594.72 171.49 C 594.73 172.65 594.74 173.82 594.77 174.98 C 592.34 174.99 589.91 174.99 587.49 175.00 C 587.49 174.12 587.50 172.38 587.50 171.50 Z"/>
        <path fill="#333333" opacity="1.00"
              d=" M 1104.75 171.50 C 1107.20 171.50 1109.65 171.50 1112.12 171.50 C 1112.12 172.37 1112.13 174.12 1112.13 174.99 C 1109.66 174.99 1107.19 174.99 1104.74 174.99 C 1104.75 174.12 1104.75 172.37 1104.75 171.50 Z"/>
        <path fill="#333333" opacity="1.00"
              d=" M 15.50 173.25 C 17.76 173.26 20.01 173.26 22.26 173.26 C 22.26 174.07 22.25 175.69 22.25 176.49 C 19.99 176.50 17.74 176.50 15.49 176.50 C 15.50 175.69 15.50 174.07 15.50 173.25 Z"/>
        <path fill="#333333" opacity="1.00"
              d=" M 87.74 173.27 C 92.12 173.25 96.50 173.26 100.89 173.24 C 100.89 174.05 100.88 175.68 100.87 176.50 C 96.50 176.51 92.13 176.51 87.76 176.50 C 87.75 175.69 87.74 174.08 87.74 173.27 Z"/>
        <path fill="#333333" opacity="1.00"
              d=" M 304.00 173.26 C 306.29 173.25 308.58 173.24 310.88 173.23 C 310.88 174.04 310.89 175.68 310.89 176.50 C 308.59 176.50 306.29 176.50 304.00 176.50 C 304.00 175.69 304.00 174.07 304.00 173.26 Z"/>
        <path fill="#333333" opacity="1.00"
              d=" M 376.38 173.28 C 380.75 173.24 385.12 173.25 389.50 173.26 C 389.50 174.07 389.50 175.69 389.50 176.50 C 385.13 176.50 380.75 176.50 376.38 176.50 C 376.38 175.69 376.38 174.09 376.38 173.28 Z"/>
        <path fill="#333333" opacity="1.00"
              d=" M 794.26 173.24 C 798.97 173.26 803.68 173.26 808.40 173.25 C 808.39 174.12 808.37 175.85 808.36 176.72 C 803.65 176.76 798.95 176.75 794.25 176.74 C 794.24 175.57 794.25 174.41 794.26 173.24 Z"/>
        <path fill="#333333" opacity="1.00"
              d=" M 513.24 176.61 C 517.94 176.63 522.65 176.61 527.36 176.63 C 527.37 177.50 527.37 179.25 527.38 180.12 C 522.67 180.12 517.97 180.14 513.26 180.10 C 513.26 179.23 513.24 177.48 513.24 176.61 Z"/>
        <path fill="#333333" opacity="1.00"
              d=" M 636.86 176.62 C 641.57 176.62 646.28 176.62 651.00 176.63 C 651.00 177.50 650.99 179.25 650.99 180.12 C 646.28 180.12 641.58 180.13 636.88 180.12 C 636.88 179.25 636.87 177.50 636.86 176.62 Z"/>
        <path fill="#333333" opacity="1.00"
              d=" M 902.23 176.61 C 904.65 176.62 907.06 176.62 909.50 176.63 C 909.48 177.79 909.49 178.96 909.50 180.13 C 907.08 180.13 904.68 180.12 902.28 180.11 C 902.27 179.23 902.24 177.48 902.23 176.61 Z"/>
        <path fill="#333333" opacity="1.00"
              d=" M 979.63 176.63 C 984.29 176.61 988.95 176.62 993.62 176.62 C 993.61 177.78 993.61 178.94 993.62 180.11 C 988.95 180.13 984.28 180.12 979.62 180.13 C 979.62 179.25 979.63 177.50 979.63 176.63 Z"/>
        <path fill="#333333" opacity="1.00"
              d=" M 1154.25 176.60 C 1158.95 176.63 1163.66 176.61 1168.37 176.63 C 1168.37 177.51 1168.37 179.25 1168.37 180.13 C 1163.66 180.12 1158.96 180.14 1154.26 180.10 C 1154.26 179.23 1154.26 177.48 1154.25 176.60 Z"/>
        <path fill="#333333" opacity="1.00"
              d=" M 28.00 179.62 C 32.38 179.62 36.75 179.62 41.13 179.62 C 41.13 180.46 41.13 182.15 41.12 182.99 C 36.75 182.99 32.37 182.99 28.00 182.99 C 28.00 182.15 28.00 180.46 28.00 179.62 Z"/>
        <path fill="#333333" opacity="1.00"
              d=" M 316.64 179.63 C 321.00 179.61 325.37 179.61 329.73 179.64 C 329.74 180.48 329.76 182.15 329.77 182.98 C 325.38 183.00 321.00 183.00 316.62 182.99 C 316.62 182.15 316.63 180.47 316.64 179.63 Z"/>
        <path fill="#333333" opacity="1.00"
              d=" M 915.63 183.63 C 920.33 183.61 925.03 183.61 929.73 183.64 C 929.73 184.80 929.73 185.97 929.75 187.14 C 925.04 187.12 920.33 187.13 915.62 187.13 C 915.62 186.25 915.63 184.50 915.63 183.63 Z"/>
    </g>
    <rect x="1.145" y="144.438" width="1199.678" height="2.338"
          style="fill: rgba(0, 0, 0, 0.59); stroke: rgba(0, 0, 0, 0.4);"/>
    <g transform="matrix(0.4624, 0, 0, 0.345226, 108.264168, 2.642181)" style="">
        <g>
            <line style="fill:none;stroke:#65513C;stroke-width:15;stroke-linejoin:round;stroke-miterlimit:10;"
                  x1="288.201" y1="104.398" x2="293.24" y2="81.463"/>
            <path style="fill:none;stroke:#65513C;stroke-width:15;stroke-linecap:round;stroke-linejoin:round;stroke-miterlimit:10;"
                  d="    M342.467,71.313c-9.408,7.613-21.389,12.174-34.434,12.174c-30.255,0-54.781-24.527-54.781-54.781    c0-7.518,1.515-14.684,4.256-21.205"/>
            <path style="fill:none;stroke:#65513C;stroke-width:15;stroke-linecap:round;stroke-linejoin:round;stroke-miterlimit:10;"
                  d="    M282.423,35.572c0,11.732-8.429,21.496-19.561,23.563"/>
            <path style="fill:none;stroke:#65513C;stroke-width:15;stroke-linecap:round;stroke-linejoin:round;stroke-miterlimit:10;"
                  d="    M303.292,44.792c-2.175,5.79-7.764,9.911-14.315,9.911c-4.384,0-8.337-1.846-11.125-4.802"/>
            <path style="fill:none;stroke:#65513C;stroke-width:15;stroke-linecap:round;stroke-linejoin:round;stroke-miterlimit:10;"
                  d="    M328.722,79.275c-5.637-2.907-9.49-8.784-9.49-15.563c0-1.208,0.123-2.388,0.355-3.526"/>
        </g>
        <g>
            <path style="fill:#997668;"
                  d="M120.712,252.391c-8.299,8.299-21.756,8.3-30.057,0c-14.142-14.145-17.56-38.662-7.247-48.976    c6.541,13.614,29.005,10.618,37.304,18.919C129.012,230.632,129.011,244.09,120.712,252.391z"/>
            <path style="fill:#F5CFB2;"
                  d="M83.408,203.415c-10.313,10.314-6.895,34.831,7.247,48.976c8.301,8.3,21.758,8.299,30.057,0    C87.65,242.311,83.584,214.908,83.408,203.415z"/>
        </g>
        <g>
            <polygon style="fill:#997668;" points="303.718,467.145 287.388,467.145 278.714,290.064 312.391,290.064   "/>
            <polygon style="fill:#333E48;" points="286.384,446.648 287.388,467.145 303.718,467.145 304.722,446.648   "/>
            <polygon style="opacity:0.3;fill:#222222;"
                     points="303.718,467.145 287.388,467.145 278.714,290.064 312.391,290.064   "/>
            <path style="opacity:0.2;fill:#222222;"
                  d="M278.714,290.064l2.627,48.515c11.101-1.951,21.144-7,29.193-14.238l1.856-34.276    H278.714z"/>
        </g>
        <g>
            <path style="fill:#997668;"
                  d="M161.737,276.67l-6.858,46.767c4.238,4.236,6.858,10.092,6.858,16.558    c0,12.932-10.484,23.417-23.417,23.417l8.674,103.733h16.33l6.55-82.484c26.128-3.928,46.162-26.469,46.162-53.691    C216.036,300.979,191.725,276.67,161.737,276.67z"/>
            <polygon style="fill:#333E48;" points="145.281,446.648 146.994,467.145 163.325,467.145 164.952,446.648   "/>
            <path style="opacity:0.3;fill:#222222;"
                  d="M161.737,276.67l-6.858,46.767c4.238,4.236,6.858,10.092,6.858,16.558    c0,12.932-10.484,23.417-23.417,23.417l8.674,103.733h16.33l6.55-82.484c26.128-3.928,46.162-26.469,46.162-53.691    C216.036,300.979,191.725,276.67,161.737,276.67z"/>
            <path style="opacity:0.2;fill:#222222;"
                  d="M161.737,276.67l-6.858,46.767c4.126,4.126,6.712,9.785,6.846,16.049h53.634    c0.437-2.775,0.678-5.617,0.678-8.517C216.036,300.979,191.725,276.67,161.737,276.67z"/>
        </g>
        <path style="fill:#997668;"
              d="M384.377,142.145c0-4.896-3.024-9.075-7.302-10.796l-0.001-0.008   c-9.022-4.173-66.258-27.733-75.223-30.433h0c-3.974-1.245-8.201-1.919-12.585-1.919c-23.207,0-42.02,18.811-42.02,42.02v78.93   h-92.464c-27.911,0-50.537,23.278-50.537,50.535c0,19.354,10.133,41.71,23.756,53.056c4.185,4.229,6.774,10.044,6.774,16.465   c0,12.932-10.484,23.417-23.417,23.417l8.673,103.733h16.33l6.55-82.484c26.128-3.928,46.162-26.469,46.162-53.691h63.537   l6.669,136.176h16.331l6.732-137.448c22.494-5.114,39.29-25.223,39.29-49.266V176.072c0-5.253,24.032-13.74,34.354-16.324   c6.039-1.514,17.384-4.103,24.973-9.394l0.009,0.02c0.021-0.021,0.039-0.046,0.06-0.065c0.003-0.002,0.005-0.004,0.007-0.005   l-0.001-0.002C383.1,148.201,384.377,145.322,384.377,142.145z"/>
        <polygon style="fill:#333E48;" points="258.276,446.648 259.28,467.145 275.61,467.145 276.614,446.648  "/>
        <path style="fill:#F5CFB2;"
              d="M384.377,142.145c0-4.896-3.024-9.075-7.302-10.796l-0.001-0.008   c-2.348-1.086-7.965-3.486-15.143-6.489c-9.25,10.295-15.295,23.519-16.59,38.112c4.053-1.383,7.852-2.517,10.645-3.216   c6.039-1.514,17.384-4.103,24.973-9.394l0.009,0.02c0.021-0.021,0.039-0.046,0.06-0.065c0.003-0.002,0.005-0.004,0.007-0.005   l-0.001-0.002C383.1,148.201,384.377,145.322,384.377,142.145z"/>
        <path style="fill:#F5CFB2;"
              d="M303.803,198.443l0.232,86.885c0,12.743-8.867,23.408-20.767,26.179l-0.89,18.181   c22.476-5.127,39.253-25.227,39.253-49.257V176.072c0-1.158,1.171-2.475,3.102-3.848   C312.752,174.936,303.803,185.639,303.803,198.443z"/>
        <circle style="fill:#333E48;" cx="298.35" cy="125.109" r="5.11"/>
        <path style="fill:#333E48;"
              d="M389.717,135.048c0-3.786-3.815-4.784-8.518-4.784c-4.704,0-8.517,0.998-8.517,4.784   c0,3.789,5.948,6.063,8.517,6.063C383.768,141.11,389.717,138.837,389.717,135.048z"/>
        <g>
            <path style="fill:#997668;"
                  d="M267.372,130.124c-0.652,0.061-16.061,1.364-25.267-7.846c-9.209-9.208-7.909-24.615-7.848-25.268    l0.409-4.467l4.466-0.407c0.651-0.062,16.06-1.361,25.267,7.846c9.209,9.206,7.909,24.614,7.848,25.267l-0.409,4.467    L267.372,130.124z"/>
            <path style="fill:#F5CFB2;"
                  d="M257.612,106.771c4.473,4.471,3.739,12.458,3.739,12.458s-7.986,0.733-12.458-3.74    c-4.474-4.474-3.74-12.459-3.74-12.459S253.138,102.297,257.612,106.771z"/>
            <path style="opacity:0.2;fill:#222222;"
                  d="M261.351,119.229c0,0-7.986,0.733-12.458-3.74c-4.474-4.474-3.74-12.459-3.74-12.459    L261.351,119.229z"/>
        </g>
        <polygon style="fill:#333E48;" points="118.318,446.648 120.032,467.145 136.362,467.145 137.99,446.648  "/>
        <path style="opacity:0.1;fill:#222222;"
              d="M154.782,219.939c-27.911,0-50.537,23.278-50.537,50.535   c0,19.354,10.133,41.71,23.756,53.056c4.185,4.229,6.774,10.044,6.774,16.465c0,12.932-10.484,23.417-23.417,23.417l8.673,103.733   h16.33l6.55-82.484c26.128-3.928,46.162-26.469,46.162-53.691h35.959v-111.03H154.782z"/>
    </g>
</svg>